<svg xmlns="http://www.w3.org/2000/svg" width="300" height="131.25" viewBox="0 0 300 131.25"><path fill="none" stroke="#11accd" d="M157.05 78.775c-.35 2.1-4.2 5.25-5.25 5.6 1.05.35 4.9 3.5 5.25 5.6" stroke-width="2" stroke-linejoin="round" stroke-linecap="round"/><path fill="none" stroke="#11accd" d="M178.125 84.375H151.05" stroke-width="2"/><path fill="none" stroke="#11accd" d="M157.05 97.525c-.35 2.1-4.2 5.25-5.25 5.6 1.05.35 4.9 3.5 5.25 5.6" stroke-width="2" stroke-linejoin="round" stroke-linecap="round"/><path fill="none" stroke="#11accd" d="M178.125 103.125H151.05" stroke-width="2"/><path fill="none" stroke="#e07d10" d="M68.275 59.325c2.1.35 5.25 4.2 5.6 5.25.35-1.05 3.5-4.9 5.6-5.25" stroke-width="2" stroke-linejoin="round" stroke-linecap="round"/><path fill="none" stroke="#e07d10" d="M73.125 37.5v27.075" stroke-width="2"/><path fill="none" stroke="#e07d10" d="M94.525 59.325c2.1.35 5.25 4.2 5.6 5.25.35-1.05 3.5-4.9 5.6-5.25" stroke-width="2" stroke-linejoin="round" stroke-linecap="round"/><path fill="none" stroke="#e07d10" d="M99.375 37.5v27.075" stroke-width="2"/><path fill="none" stroke="#e07d10" d="M122.65 59.325c2.1.35 5.25 4.2 5.6 5.25.35-1.05 3.5-4.9 5.6-5.25" stroke-width="2" stroke-linejoin="round" stroke-linecap="round"/><path fill="none" stroke="#e07d10" d="M127.5 37.5v27.075" stroke-width="2"/></svg>
